# xmcd
# Copyright (C) 1995-1998 Ti Kan
#
# Track frame offsets:
#       150
#       7041
#       23429
#       36793
#       53412
#       68550
#       72958
#       90001
#       107289
#       132550
#       135225
#       153751
#       183029
#       202442
#       205484
#       227272
#
# Disc length: 3446 seconds
#
# Revision: 0
# Processed by: cddbd v1.4PL0 Copyright (c) Steve Scherf et al.
# Submitted via: CD-Transfer v1.0
#
DISCID=bd0d7410
DTITLE=Andy Portmann - Broadway Pop
DYEAR=2003
DGENRE=
TTITLE0=Arrival
TTITLE1=Maybe I
TTITLE2=The Dream Of Your Love
TTITLE3=Falling To Pieces
TTITLE4=All The Same
TTITLE5=Morning
TTITLE6=Are You Growing
TTITLE7=The One You Know
TTITLE8=Mystery
TTITLE9=Dave Norwoods
TTITLE10=Turn The Music On
TTITLE11=Exciting
TTITLE12=The Miracle
TTITLE13=Thumb
TTITLE14=Never Win
TTITLE15=Departure
EXTD=
EXTT0=
EXTT1=
EXTT2=
EXTT3=
EXTT4=
EXTT5=
EXTT6=
EXTT7=
EXTT8=
EXTT9=
EXTT10=
EXTT11=
EXTT12=
EXTT13=
EXTT14=
EXTT15=
PLAYORDER=
